<svg width="16" height="16" viewBox="0 0 16 16" fill="none" xmlns="http://www.w3.org/2000/svg">
<path d="M6.59375 8C6.59375 8.77661 7.22339 9.40625 8 9.40625C8.77661 9.40625 9.40625 8.77661 9.40625 8C9.40625 7.22339 8.77661 6.59375 8 6.59375C7.22339 6.59375 6.59375 7.22339 6.59375 8Z" fill="white"/>
<path d="M5.625 3.75H10.375C11.4089 3.75 12.25 4.59106 12.25 5.625V10.375C12.25 11.4089 11.4089 12.25 10.375 12.25H5.625C4.59106 12.25 3.75 11.4089 3.75 10.375V5.625C3.75 4.59106 4.59106 3.75 5.625 3.75ZM8 10.3438C9.29236 10.3438 10.3438 9.29236 10.3438 8C10.3438 6.70764 9.29236 5.65625 8 5.65625C6.70764 5.65625 5.65625 6.70764 5.65625 8C5.65625 9.29236 6.70764 10.3438 8 10.3438ZM5.3125 5.78125C5.57141 5.78125 5.78125 5.57141 5.78125 5.3125C5.78125 5.05359 5.57141 4.84375 5.3125 4.84375C5.05359 4.84375 4.84375 5.05359 4.84375 5.3125C4.84375 5.57141 5.05359 5.78125 5.3125 5.78125Z" fill="white"/>
<path d="M4.21875 0H11.7812C14.1074 0 16 1.89258 16 4.21875V11.7812C16 14.1074 14.1074 16 11.7812 16H4.21875C1.89258 16 0 14.1074 0 11.7812V4.21875C0 1.89258 1.89258 0 4.21875 0ZM2.8125 10.375C2.8125 11.9258 4.07422 13.1875 5.625 13.1875H10.375C11.9258 13.1875 13.1875 11.9258 13.1875 10.375V5.625C13.1875 4.07422 11.9258 2.8125 10.375 2.8125H5.625C4.07422 2.8125 2.8125 4.07422 2.8125 5.625V10.375Z" fill="white"/>
</svg>
