<svg width="16" height="13" viewBox="0 0 16 13" fill="none" xmlns="http://www.w3.org/2000/svg">
<path d="M16 1.52585C15.405 1.78462 14.771 1.95614 14.11 2.03942C14.79 1.63689 15.309 1.00434 15.553 0.241914C14.919 0.616684 14.219 0.881402 13.473 1.02913C12.871 0.393607 12.013 0 11.077 0C9.261 0 7.799 1.4614 7.799 3.25296C7.799 3.51074 7.821 3.7586 7.875 3.99456C5.148 3.8627 2.735 2.56687 1.114 0.592889C0.831 1.07969 0.665 1.63689 0.665 2.23672C0.665 3.36301 1.25 4.3614 2.122 4.93942C1.595 4.9295 1.078 4.77781 0.64 4.53887C0.64 4.54879 0.64 4.56167 0.64 4.57456C0.64 6.15494 1.777 7.46762 3.268 7.77002C3.001 7.84239 2.71 7.87709 2.408 7.87709C2.198 7.87709 1.986 7.8652 1.787 7.82157C2.212 9.10947 3.418 10.0563 4.852 10.087C3.736 10.9526 2.319 11.4741 0.785 11.4741C0.516 11.4741 0.258 11.4622 0 11.4295C1.453 12.3585 3.175 12.8889 5.032 12.8889C11.068 12.8889 14.368 7.93162 14.368 3.63467C14.368 3.49091 14.363 3.3521 14.356 3.21429C15.007 2.75624 15.554 2.18417 16 1.52585Z" fill="white"/>
</svg>
