<svg width="16" height="17" viewBox="0 0 16 17" fill="none" xmlns="http://www.w3.org/2000/svg">
<path d="M8.32352 9.57712C8.12966 9.77111 7.81526 9.77111 7.62127 9.57712L5.36448 7.32033C5.27136 7.22721 5.21898 7.10085 5.21898 6.9692C5.21898 6.83741 5.27136 6.71119 5.36448 6.61794L5.76565 6.21689L4.58734 5.03857L3.62203 6.00389C3.29715 6.32876 3.29728 6.85733 3.62203 7.1822L7.75939 11.3198C7.91575 11.4762 8.125 11.5622 8.34861 11.5622C8.57222 11.5622 8.78148 11.4761 8.93784 11.3197L9.90315 10.3545L8.72483 9.17607L8.32352 9.57712Z" fill="white"/>
<path d="M15.5107 5.98302C15.5107 4.39085 14.8868 2.89012 13.7536 1.75706C12.6206 0.624013 11.1198 0 9.5278 0H5.98276C5.98276 0 5.98276 0 5.98263 0C4.39072 0 2.88999 0.624013 1.75706 1.75693C0.624013 2.88999 0 4.39085 0 5.98289V8.76941C0 10.0023 0.376089 11.1884 1.08766 12.1993C1.71542 13.0912 2.55968 13.7878 3.544 14.2296V15.8301C3.544 16.6577 4.00739 16.9513 4.40417 16.9514C4.68766 16.9514 4.97128 16.8115 5.24727 16.5356L7.03033 14.7523H9.52793C11.12 14.7523 12.6207 14.1283 13.7538 12.9952C14.8868 11.8622 15.5108 10.3615 15.5108 8.76941L15.5107 5.98302ZM10.9568 10.7057L9.64019 12.0222C9.29617 12.3662 8.83757 12.5554 8.34871 12.5554C7.85984 12.5554 7.40124 12.3661 7.05723 12.0222L2.91973 7.88454C2.20778 7.17233 2.20778 6.01367 2.91973 5.30158L4.2363 3.98514C4.32942 3.8919 4.45564 3.83965 4.58743 3.83965C4.71909 3.83965 4.84544 3.8919 4.93856 3.98514L6.81926 5.86585C6.91238 5.95896 6.96463 6.08532 6.96463 6.21698C6.96463 6.34863 6.91238 6.47499 6.81913 6.5681L6.41808 6.96915L7.97262 8.52369L8.3738 8.12251C8.56779 7.92865 8.88219 7.92865 9.07605 8.12264L10.9568 10.0033C11.05 10.0965 11.1023 10.2228 11.1023 10.3545C11.1023 10.4863 11.05 10.6126 10.9568 10.7057ZM7.37926 4.82126C7.37926 4.54708 7.60157 4.32463 7.87588 4.32463C9.5966 4.32463 10.9966 5.72449 10.9966 7.44508C10.9966 7.71939 10.7743 7.94171 10.5 7.94171C10.2258 7.94171 10.0033 7.71939 10.0033 7.44508C10.0033 6.2722 9.04902 5.31788 7.87588 5.31788C7.60157 5.31788 7.37926 5.09556 7.37926 4.82126ZM12.6276 7.94197C12.3532 7.94197 12.1309 7.71952 12.1309 7.44534C12.1311 6.30867 11.6884 5.24015 10.8847 4.43637C10.0809 3.63272 9.01242 3.19003 7.87575 3.19003C7.60157 3.19003 7.37913 2.96771 7.37913 2.69341C7.37913 2.41923 7.60157 2.19678 7.87575 2.19678C9.27768 2.19678 10.5957 2.74281 11.587 3.73412C12.5784 4.72542 13.1243 6.04342 13.1242 7.44534C13.1242 7.71952 12.9019 7.94197 12.6276 7.94197Z" fill="white"/>
</svg>
